<mxfile host="65bd71144e" pages="1">
    <diagram id="4aA8682Oxr7YlsX3xrEW" name="Page-1">
        <mxGraphModel dx="808" dy="497" grid="1" gridSize="10" guides="1" tooltips="1" connect="1" arrows="1" fold="1" page="1" pageScale="1" pageWidth="827" pageHeight="1169" math="0" shadow="0">
            <root>
                <mxCell id="0"/>
                <mxCell id="1" parent="0"/>
                <mxCell id="asYjwT--wiLLLTKxJUm1-8" value="" style="rounded=0;whiteSpace=wrap;html=1;strokeColor=#767171;fillColor=none;gradientColor=none;strokeWidth=2;" parent="1" vertex="1">
                    <mxGeometry x="134" y="71" width="190" height="200" as="geometry"/>
                </mxCell>
                <mxCell id="asYjwT--wiLLLTKxJUm1-4" value="" style="outlineConnect=0;fontColor=#232F3E;gradientColor=none;gradientDirection=north;fillColor=#767171;strokeColor=#ffffff;dashed=0;verticalLabelPosition=bottom;verticalAlign=top;align=center;html=1;fontSize=12;fontStyle=0;aspect=fixed;shape=mxgraph.aws4.resourceIcon;resIcon=mxgraph.aws4.vpc;" parent="1" vertex="1">
                    <mxGeometry x="134" y="71" width="40" height="40" as="geometry"/>
                </mxCell>
                <mxCell id="asYjwT--wiLLLTKxJUm1-9" value="" style="outlineConnect=0;fontColor=#232F3E;gradientColor=none;fillColor=#767171;strokeColor=none;dashed=0;verticalLabelPosition=bottom;verticalAlign=top;align=center;html=1;fontSize=12;fontStyle=0;aspect=fixed;pointerEvents=1;shape=mxgraph.aws4.route_table;" parent="1" vertex="1">
                    <mxGeometry x="254" y="151" width="41.05" height="40" as="geometry"/>
                </mxCell>
                <mxCell id="60ESzJUTIIsdwbc3OIJS-2" style="edgeStyle=none;rounded=0;orthogonalLoop=1;jettySize=auto;html=1;exitX=0;exitY=0.5;exitDx=0;exitDy=0;exitPerimeter=0;strokeColor=#23A8D4;fontColor=#767171;endArrow=none;endFill=0;strokeWidth=2;" parent="1" source="asYjwT--wiLLLTKxJUm1-11" target="60ESzJUTIIsdwbc3OIJS-1" edge="1">
                    <mxGeometry relative="1" as="geometry">
                        <mxPoint x="193.17292742767586" y="57.84131585581042" as="targetPoint"/>
                    </mxGeometry>
                </mxCell>
                <mxCell id="asYjwT--wiLLLTKxJUm1-11" value="" style="outlineConnect=0;dashed=0;verticalLabelPosition=bottom;verticalAlign=top;align=center;html=1;shape=mxgraph.aws3.router;fillColor=#767171;gradientColor=none;strokeColor=#767171;" parent="1" vertex="1">
                    <mxGeometry x="174" y="151" width="40" height="40" as="geometry"/>
                </mxCell>
                <mxCell id="asYjwT--wiLLLTKxJUm1-12" value="" style="endArrow=none;html=1;entryX=1;entryY=0.5;entryDx=0;entryDy=0;entryPerimeter=0;strokeColor=#767171;strokeWidth=2;" parent="1" source="asYjwT--wiLLLTKxJUm1-9" target="asYjwT--wiLLLTKxJUm1-11" edge="1">
                    <mxGeometry width="50" height="50" relative="1" as="geometry">
                        <mxPoint x="194" y="401" as="sourcePoint"/>
                        <mxPoint x="244" y="351" as="targetPoint"/>
                    </mxGeometry>
                </mxCell>
                <mxCell id="asYjwT--wiLLLTKxJUm1-13" value="vpc" style="text;html=1;resizable=0;autosize=1;align=center;verticalAlign=middle;points=[];fillColor=none;strokeColor=none;rounded=0;fontColor=#767171;fontStyle=1" parent="1" vertex="1">
                    <mxGeometry x="179" y="81" width="30" height="20" as="geometry"/>
                </mxCell>
                <mxCell id="asYjwT--wiLLLTKxJUm1-14" value="router" style="text;html=1;resizable=0;autosize=1;align=center;verticalAlign=middle;points=[];fillColor=none;strokeColor=none;rounded=0;fontColor=#767171;fontStyle=1" parent="1" vertex="1">
                    <mxGeometry x="169" y="204" width="50" height="20" as="geometry"/>
                </mxCell>
                <mxCell id="asYjwT--wiLLLTKxJUm1-15" value="route table" style="text;html=1;resizable=0;autosize=1;align=center;verticalAlign=middle;points=[];fillColor=none;strokeColor=none;rounded=0;fontColor=#767171;fontStyle=1" parent="1" vertex="1">
                    <mxGeometry x="239.5" y="204" width="70" height="20" as="geometry"/>
                </mxCell>
                <mxCell id="asYjwT--wiLLLTKxJUm1-16" value="" style="endArrow=none;html=1;strokeColor=#767171;fontColor=#767171;fontSize=27;spacing=7;strokeWidth=2;" parent="1" edge="1">
                    <mxGeometry width="50" height="50" relative="1" as="geometry">
                        <mxPoint x="360" y="110.5" as="sourcePoint"/>
                        <mxPoint x="400" y="110.5" as="targetPoint"/>
                    </mxGeometry>
                </mxCell>
                <mxCell id="asYjwT--wiLLLTKxJUm1-17" value="" style="endArrow=none;html=1;strokeColor=#23A8D4;fontColor=#767171;fontSize=27;spacing=7;strokeWidth=2;" parent="1" edge="1">
                    <mxGeometry width="50" height="50" relative="1" as="geometry">
                        <mxPoint x="360" y="151" as="sourcePoint"/>
                        <mxPoint x="400" y="151" as="targetPoint"/>
                    </mxGeometry>
                </mxCell>
                <mxCell id="asYjwT--wiLLLTKxJUm1-18" value="&lt;font style=&quot;font-size: 12px&quot;&gt;Preexisting resources&lt;/font&gt;" style="text;html=1;resizable=0;autosize=1;align=center;verticalAlign=middle;points=[];fillColor=none;strokeColor=none;rounded=0;fontSize=12;fontColor=#767171;fontStyle=1" parent="1" vertex="1">
                    <mxGeometry x="409" y="96" width="130" height="20" as="geometry"/>
                </mxCell>
                <mxCell id="asYjwT--wiLLLTKxJUm1-19" value="&lt;font style=&quot;font-size: 12px&quot;&gt;Module resources&lt;/font&gt;" style="text;html=1;resizable=0;autosize=1;align=center;verticalAlign=middle;points=[];fillColor=none;strokeColor=none;rounded=0;fontSize=12;fontColor=#23A8D4;fontStyle=1" parent="1" vertex="1">
                    <mxGeometry x="407" y="137" width="110" height="20" as="geometry"/>
                </mxCell>
                <mxCell id="60ESzJUTIIsdwbc3OIJS-1" value="" style="outlineConnect=0;fontColor=#232F3E;gradientColor=none;fillColor=#23A8D4;strokeColor=none;dashed=0;verticalLabelPosition=bottom;verticalAlign=top;align=center;html=1;fontSize=12;fontStyle=0;aspect=fixed;pointerEvents=1;shape=mxgraph.aws4.internet_alt2;" parent="1" vertex="1">
                    <mxGeometry x="34" y="141" width="58" height="58" as="geometry"/>
                </mxCell>
            </root>
        </mxGraphModel>
    </diagram>
</mxfile>